# xmcd CD database file
#
# Track frame offsets:
#	150
#	18561
#	41559
#	63351
#	82803
#	106886
#	126731
#	155000
#	178882
#	200533
#	227596
#	247967
#	274177
#	291273
#	311222
#	326039
#
# Disc length: 4537 seconds
#
# Revision: 0
# Processed by: cddbd v1.4PL0 Copyright (c) Steve Scherf et al.
# Submitted via: CDex 1.50
#
DISCID=ec11b710
DTITLE=Bloomingdale - Aan Zee
DYEAR=2002
DGENRE=Jazz
TTITLE0=Tiefschwarz - Never (Radio Edit)
TTITLE1=Heel People ft. Nathan Haines - Spiritual (Distant Music Dub Mix)
TTITLE2=Jon Cutler - You Groove Me (Original Mix)
TTITLE3=Praful - Corpo Suado (Extended Album Version)
TTITLE4=Deepstar - Sugar (Sugar Vocal Mix)
TTITLE5=Rinneradio - Kuvala (JS 16 Mix)
TTITLE6=Dina Vass - The Love I Have For You (Club Mix)
TTITLE7=Julie McKnight - Home (Knee Deep Club Mix)
TTITLE8=Mambana - No Reason (Axwell Vocal Mix)
TTITLE9=Urban Magic - Dreams (Original Mix)
TTITLE10=Sweetreat - Dreamscape
TTITLE11=Jask ft. Jocie - Beautiful (Jocie In My Room Mix)
TTITLE12=De Nuit - All That Mattered (Innervisions Club Mix)
TTITLE13=Una Mas - I Will Follow (Full Intention Club Mix)
TTITLE14=Solaris - Sunrise (Original Mix)
TTITLE15=Probspot v.s. Alexi Delano - You And Me (Alexi's ADNY Mix)
EXTD=YEAR: 2002
EXTT0=
EXTT1=
EXTT2=
EXTT3=
EXTT4=
EXTT5=
EXTT6=
EXTT7=
EXTT8=
EXTT9=
EXTT10=
EXTT11=
EXTT12=
EXTT13=
EXTT14=
EXTT15=
PLAYORDER=
